<?xml version="1.0" encoding="UTF-8" standalone="no"?>
<svg
   xmlns:dc="http://purl.org/dc/elements/1.1/"
   xmlns:cc="http://creativecommons.org/ns#"
   xmlns:rdf="http://www.w3.org/1999/02/22-rdf-syntax-ns#"
   xmlns:svg="http://www.w3.org/2000/svg"
   xmlns="http://www.w3.org/2000/svg"
   version="1.1"
   id="svg2"
   viewBox="0 0 824.99998 324.99997"
   height="325"
   width="825">
  <defs
     id="defs4" />
  <metadata
     id="metadata7">
    <rdf:RDF>
      <cc:Work
         rdf:about="">
        <dc:format>image/svg+xml</dc:format>
        <dc:type
           rdf:resource="http://purl.org/dc/dcmitype/StillImage" />
        <dc:title></dc:title>
      </cc:Work>
    </rdf:RDF>
  </metadata>
  <g
     transform="translate(35,-172.36214)"
     id="layer1">
    <path
       id="rect4144"
       transform="translate(-55,172.36212)"
       d="m 295,75 0,45 0,30 0,35 0,1 0.0254,0 c 0.26019,16.87128 7.06241,33.01358 19.01172,44.96289 11.94946,11.94946 28.09139,18.75168 44.96289,19.01172 l 0,0.0254 21,0 0,-30 -20,0 c -9.28834,0 -18.1802,-3.68215 -24.74805,-10.25 C 328.68411,203.18215 325,194.28834 325,185 l 0,-35 50,0 0,-30 -50,0 0,-45 -30,0 z m 169,45 0,0.0254 c -16.8715,0.26011 -33.01343,7.06422 -44.96289,19.01367 -11.94946,11.94945 -18.75168,28.0895 -19.01172,44.96093 l -0.0254,0 0,66 30,0 0,-65 c 0,-9.28834 3.68411,-18.1802 10.25195,-24.74805 C 446.8198,153.6841 455.71166,150 465,150 l 20,0 0,-30 -21,0 z m 96,0 c -35.72084,0 -65,29.27916 -65,65 0,35.72084 29.27916,65 65,65 12.86061,0 24.87514,-3.81125 35,-10.33594 L 595,250 l 30,0 0,-65 c 0,-35.72084 -29.27916,-65 -65,-65 z m 145,0 c -35.72084,0 -65,29.27916 -65,65 0,35.72084 29.27916,65 65,65 12.86061,0 24.87514,-3.81125 35,-10.33594 L 740,295 l 30,0 0,-110 c 0,-35.72084 -29.27916,-65 -65,-65 z m -145,30 c 19.50763,0 35,15.49236 35,35 0,19.50763 -15.49237,35 -35,35 -19.50763,0 -35,-15.49237 -35,-35 0,-19.50764 15.49237,-35 35,-35 z m 145,0 c 19.50763,0 35,15.49237 35,35 0,19.50763 -15.49236,35 -35,35 -19.50764,0 -35,-15.49237 -35,-35 0,-19.50763 15.49237,-35 35,-35 z"
       style="color:#000000;clip-rule:nonzero;display:inline;overflow:visible;visibility:visible;opacity:1;isolation:auto;mix-blend-mode:normal;color-interpolation:sRGB;color-interpolation-filters:linearRGB;solid-color:#000000;solid-opacity:1;fill:#ececec;fill-opacity:1;fill-rule:nonzero;stroke:none;stroke-width:13.42399979;stroke-linecap:butt;stroke-linejoin:miter;stroke-miterlimit:4;stroke-dasharray:none;stroke-dashoffset:0;stroke-opacity:1;color-rendering:auto;image-rendering:auto;shape-rendering:auto;text-rendering:auto;enable-background:accumulate" />
    <path
       transform="translate(-55,172.36212)"
       id="circle4190"
       d="m 95,120 0,21 0.02539,0 c 0.260191,16.87128 7.06241,33.01358 19.01172,44.96289 11.94946,11.94946 28.09139,18.75168 44.96289,19.01172 l 0,0.0254 21,0 0,-30 -20,0 c -9.28834,0 -18.1802,-3.68215 -24.74805,-10.25 C 128.68411,158.18215 125,149.28834 125,140 l 0,-20 -30,0 z m 50,0 0,30 20,0 c 19.50763,0 35,15.49236 35,35 l 0,20 30,0 0,-20 0,-1 -0.0254,0 C 229.43738,149.07018 200.92982,120.56263 166,120.02539 l 0,-0.0254 -1,0 -20,0 z"
       style="color:#000000;font-style:normal;font-variant:normal;font-weight:normal;font-stretch:normal;font-size:medium;line-height:normal;font-family:sans-serif;text-indent:0;text-align:start;text-decoration:none;text-decoration-line:none;text-decoration-style:solid;text-decoration-color:#000000;letter-spacing:normal;word-spacing:normal;text-transform:none;direction:ltr;block-progression:tb;writing-mode:lr-tb;baseline-shift:baseline;text-anchor:start;white-space:normal;clip-rule:nonzero;display:inline;overflow:visible;visibility:visible;opacity:1;isolation:auto;mix-blend-mode:normal;color-interpolation:sRGB;color-interpolation-filters:linearRGB;solid-color:#000000;solid-opacity:1;fill:#ffeb3b;fill-opacity:1;fill-rule:nonzero;stroke:none;stroke-width:30;stroke-linecap:butt;stroke-linejoin:miter;stroke-miterlimit:4;stroke-dasharray:none;stroke-dashoffset:0;stroke-opacity:1;color-rendering:auto;image-rendering:auto;shape-rendering:auto;text-rendering:auto;enable-background:accumulate" />
  </g>
</svg>
